<svg xmlns="http://www.w3.org/2000/svg" width="751" height="471" viewBox="0 0 751 471"><path fill="#fefefe" d="M352.16 249.794c-1.299-2.627-1.711-5.467-2.895-7.632-5.633-10.302-12.442-20.963-16.797-31.836-1.626-4.061 2.082-14.875 3.139-19.311l7.894-32.858 15.265-65.038c3.131-13.446 6.55-26.98 9.805-40.417 1.144-4.723 3.715-8.292 8.932-8.395 1.89.768 4.102 1.95 4.66 3.996 1.64 6.008 2.967 13.087 4.357 19.135l10.581 44.476 15.201 63.432c2.253 9.386 4.803 18.932 6.82 28.364.754 3.523.55 4.642-.987 7.898-2.43 5.148-5.148 10.28-7.756 15.357a2043 2043 0 0 0-11.507 22.767 96 96 0 0 0 7.61 2.89c6.525 2.215 13.982 4.448 20.84 5.157 2.45.252 5.375.415 7.788-.136 1.196-.273 2.185-1.208 3.299-1.709 3.048-1.368 6.098-1.605 8.816-3.869 15.669-13.044-4.61-61.696-8.818-77.64-2.726-10.326-4.98-21.013-4.02-31.74 2.172-24.233 12.86-52.72 32.09-68.654 2.87-2.379 4.744-3.79 8.553-3.444 1.754 1.294 3.947 2.64 4.07 5.071.254 5.147-1.718 10.325-2.654 15.444-10.108 55.286 31.143 99.347 40.256 151.215 1.798 10.232 4.317 23.825 2.765 34.11-3.31 4.877-41.299 33.735-47.31 38.94-.777.674-3.398 2.212-4.623 2.338-7.21.736-17.257-.331-24.44-1.139-2.838.226-8.239.168-10.496.53-4.145.32-15.888-4.818-20.11-1.456-2.102 3.263 1.182 9.075 2.883 12.033.465.54 3.23 3.803 3.561 4.054.963 2.268 1.612 5.057.713 7.474-.583 1.572-2.516 3.079-3.748 4.16-3.952 3.47-34.77 28.104-36.878 28.883-2.471.913-5.154.401-7.6-.33-7.303-4.672-15.25-12.142-22.329-17.357-4.729-3.482-10.623-8.455-15.022-12.11-7.617-6.326 8.668-18.512 11.18-24.102q.502-1.106.973-2.22c.158-1.316.248-1.509-.109-2.743-2.852-1.764-20.792 2.818-24.968 3.56-12.98 2.31-25.204 3.058-38.326 2.31-4.044-3.182-4.912-2.336-8.543-7.176-10.93-9.259-22.323-18.044-33.37-27.165-2.92-2.411-6.538-5.046-8.987-7.873-1.126-6.363-.418-15.971.35-22.407 2.756-23.11 12.077-46.18 21.56-67.339 8.056-17.971 15.69-33.597 19.624-53.196 2.868-14.284 5.532-24.416 2.181-39.044-1.048-5.984-2.863-12.139-2.94-18.204-.052-4.013 3.62-7.167 7.225-6.584 7.607 1.23 15.091 14.017 19.805 19.569 16.436 28.224 21.918 54.176 12.787 85.824-5.024 17.412-20.829 57.502-9.846 73.233 4.604 5.762 14.26 9.117 21.482 8.969 6.28-.129 15.572-4.765 21.708-4.708 2.182-1.914 3.672-2.32 6.305-3.357m-56.133-134.38-1.258-.749c-3.07 1.617-2.753 10.953-3.745 14.392l-1.09-.506c-.313.651-.666 1.52-1.06 2.078-.87 2.725-1.318 6.585-1.959 9.509-9.442 43.032-41.993 84.36-40.27 129.85 1.144.986 2.47 2.186 3.668 3.067a880 880 0 0 1 21.138 16.933c5.22 4.322 11.605 9.88 16.92 13.839 4.48.228 8.83.417 13.295-.066 2.678-.29 6.086-1.651 8.596-1.78 14.197-.725 27.348-5.538 40.699-9.974 3.47-1.154 4.998-1.451 8.63-1.06.315.23 1.908 1.436 2.14 1.527 3.63 6.366 4.162 15.81 2.432 22.925-1.216 4.998-5.237 9.148-8.575 13.003l-.084 2.529c-2.159 9.28.76 7.301 5.271 13.19 1.183 1.718 12.549 10.43 15.045 12.298 3.484-2.291 4.575-2.702 8.082-5.492 5.84-4.648 12.121-10.733 18.032-15.1-9.109-11.97-19.57-17.444-14.962-34.622 1.495-5.573 1.595-6.389 6.064-10.282 6.677-.694 8.912.568 15.055 2.851 5.187 1.503 10.583 4.019 15.809 5.279 3.76.905 9.189.47 13.277 2.053 1.653.64 5.637.468 7.509 1.048 6.786 2.101 12.794 1.987 19.778 1.771 9.046-7.346 18.07-15.34 27.034-22.806 5.93-4.938 7.502-4.1 13.222-11.024-.312-10.211-.644-16.596-2.841-26.791-7.175-33.296-25.724-61.616-35.328-94.097-2.903-9.82-4.287-19.053-5.634-29.144-.468-1.852-.19-1.905-1.341-3.124-4.638-.034-5.776 13.058-7.323 15.607l-.957.094c-.303.624-.63 1.424-1.073 1.932-.082.444-.245 1.163-.254 1.586a78.2 78.2 0 0 0 .754 26.391c5.49 27.557 32.255 79.042 3.73 101.756-1.005.8-5.534 3.713-5.602 3.786-20.722 7.8-40.53 2.544-59.94-6.696-2.12-1.009-3.965-1.933-5.814-3.408-2.793-11.015 11.327-28.998 15.599-39.368 1.076-2.612 6.013-10.03 5.58-12.886-1.409-9.29-4.308-18.847-6.568-28.028l-10.84-44.756c-2.89-11.946-5.07-24.062-8.417-35.993-.718-3.896-1.409-7.65-2.937-11.333-2.041 6.752-3.7 15.37-5.286 22.398-1.593 7.052-3.71 14.865-5.102 21.861-4.874 18.3-8.653 37.88-13.512 56.242-1.568 6.356-3.015 13.379-4.664 19.572q7.328 14.35 14.445 28.806c2.551 5.062 5.313 10.083 7.478 15.311 2.27 5.48-.51 8.843-5.316 11.157-17.476 8.416-38.108 14.498-57.332 8.66-3.736-1.143-7.833-3.864-10.977-6.059-2.269-3.542-6.152-5.77-7.79-10.595-10.141-29.885 6.269-61.3 13.503-89.994 3.703-14.684 1.145-33.517-4.934-47.569"/><path d="M274.275 312.076c1.627 1.266 6.142 4.97 7.919 5.332 7.593 1.548 22.342-.355 29.987-1.314a192.2 192.2 0 0 0 37.636-8.957c2.58 2.11-2.01 7.154-3.596 8.987.158-1.315.248-1.508-.109-2.742-2.852-1.764-20.792 2.818-24.968 3.56-12.98 2.31-25.204 3.058-38.326 2.31-4.044-3.182-4.912-2.336-8.543-7.176"/><path d="M415.371 327.673c-1.21-1.04-3.873-3.76-4.797-4.973-2.555-3.354-11.52-11.27-9.758-15.547.833-.164 6.307 1.938 7.587 2.332 11.402 3.512 22.893 5.572 34.691 7.081-2.838.226-8.239.168-10.496.53-4.145.32-15.888-4.818-20.11-1.456-2.102 3.263 1.182 9.075 2.883 12.033"/><path d="M288.875 130.63c.393-.56.746-1.428 1.06-2.079l1.09.506c-3.958 19.696-6.436 30.214-14.856 48.723-11.385 25.023-23.824 52.008-26.985 79.453-.664 6.5-2.17 9.653 1.129 15.822-1.198-.881-2.524-2.081-3.668-3.067-1.723-45.49 30.828-86.818 40.27-129.85.641-2.924 1.09-6.784 1.96-9.509"/><path d="M351.614 186.124c.142 2.255-.282 3.696.566 5.563l-.034.422c-.273 3.061-3.039 13.218-2.354 15.164 4.159 11.822 10.716 23.602 16.253 34.94 3.289 6.736 9.698 12.067 1.382 19.673-5.463.742-12.243 5.727-17.643 7.605-4.081 1.417-8.74 2.89-13.07 3.636-5.623.447-21.18.807-26.25-.258a28.3 28.3 0 0 1-9.964-4.295c-1.434-.996-4.347-3.53-5.252-5.003 3.144 2.195 7.24 4.916 10.977 6.06 19.224 5.837 39.856-.245 57.332-8.66 4.807-2.315 7.586-5.677 5.316-11.158-2.165-5.228-4.927-10.249-7.478-15.31a2188 2188 0 0 0-14.445-28.807c1.65-6.193 3.096-13.216 4.664-19.572"/><path d="m449.969 136.158.689 1.962.586-1.442c.021 1.185.04 3.391.188 4.511-.355 6.66-.62 15.548.77 22.155 6.002 28.549 31.869 78.033 4.875 102.135-3.333 2.976-7.358 5.068-11.657 6.293l.555-1.458c1.353-.723 1.961-.943 2.876-2.223.068-.073 4.597-2.987 5.601-3.786 28.526-22.714 1.761-74.199-3.73-101.756a78.2 78.2 0 0 1-.753-26.391"/><path d="m365.126 129.882 1.088-1.328 1.095.575c-2.022 7.695-3.657 14.988-5.225 22.785-1.347 6.704-3.633 13.509-5.152 20.199-1.49 6.523-2.917 13.136-4.752 19.574-.848-1.867-.424-3.308-.566-5.563 4.859-18.362 8.638-37.941 13.512-56.242"/><path d="M383.097 257.987c1.849 1.475 3.695 2.4 5.814 3.408 19.41 9.24 39.218 14.496 59.94 6.696-.915 1.28-1.523 1.5-2.876 2.223l-.555 1.458c-3.14 1.81-8.752 1.713-12.352 1.635-8.646-.19-17.181.792-25.334-2.664a867 867 0 0 1-8.316-3.577c-5.114-1.822-14.18-3.28-16.32-9.179"/><path d="M375.514 85.623c1.528 3.683 2.219 7.437 2.937 11.333-.649-.995-.635-1.398-1.547-1.602-3.164 3.22-7.972 28.008-9.595 33.775l-1.095-.575-1.088 1.328c1.392-6.996 3.51-14.81 5.102-21.861 1.586-7.028 3.245-15.646 5.286-22.398"/><path d="M450.223 134.572c.918-10.12 5.433-21.004 9.995-29.97.391 4.877.394 10.43.699 15.46-.468-1.85-.19-1.904-1.341-3.123-4.638-.034-5.776 13.058-7.323 15.607l-.957.094c-.303.624-.63 1.424-1.073 1.932"/><path d="M361.73 292.474c7.4 4.526 5.88 23.93 1.884 30.46-2.088 3.412-5.852 5.016-8.11 7.997l.084-2.53c3.338-3.854 7.359-8.004 8.575-13.002 1.73-7.114 1.198-16.56-2.432-22.925"/><path d="M290.86 104.253c1.88 3.775 3.636 7.213 5.167 11.16l-1.258-.748c-3.07 1.617-2.753 10.953-3.745 14.392l-1.09-.506c-.313.651-.666 1.52-1.06 2.078 1.405-10.49 1.796-15.95 1.987-26.376"/><path d="m355.588 328.402-.084 2.529c-2.159 9.28.76 7.301 5.271 13.19-3.148-1.976-8.473-6.176-11.296-8.555 1.947-2.416 4.073-4.812 6.11-7.164"/><path d="M450.223 134.572c.443-.508.77-1.308 1.073-1.932l.957-.094c-.428 2.64-.408 6.815-.82 8.643-.149-1.12-.168-3.326-.189-4.51l-.586 1.441-.69-1.962c.01-.423.173-1.142.255-1.586"/><path d="M475.03 70.587c10.546 1.535 1.988 24.971 1.689 32.34-1.531 37.588 16.71 70.544 30.66 104.207 7.539 18.194 12.561 35.512 13.47 55.35.336 7.342 3.726 14.706-3.466 19.952-5.32 4.464-11.18 8.225-16.51 12.53l-18.37 14.887c-4.655 3.838-7.24 6.467-12.53 9.522-11.232.093-21.946.557-32.893-1.87-1.25-.277-3.168-.323-4.482-.408 2.257-.363 7.658-.305 10.496-.53 7.183.807 17.23 1.874 24.44 1.138 1.225-.126 3.846-1.664 4.624-2.338 6.01-5.205 43.998-34.063 47.309-38.94 1.552-10.285-.967-23.878-2.765-34.11-9.113-51.868-50.364-95.929-40.256-151.215.936-5.12 2.908-10.297 2.654-15.444-.123-2.43-2.316-3.777-4.07-5.071"/><path d="M377.503 44.307c4.047.276 6.46 3.795 7.453 7.523 1.56 5.866 2.252 11.935 3.66 17.885l15.293 67.35c.754 3.321 3.083 8.535 3.578 11.809 2.703 17.9 11.81 43.665 13.484 60.383.742 7.43-17.222 28.842-17.394 37.91-.34 1.789 1.706 4.24 2.905 5.455a96 96 0 0 1-7.61-2.89 2043 2043 0 0 1 11.507-22.767c2.608-5.077 5.326-10.21 7.756-15.357 1.538-3.256 1.74-4.375.987-7.898-2.017-9.432-4.567-18.978-6.82-28.364l-15.201-63.432-10.58-44.476c-1.39-6.048-2.719-13.127-4.358-19.135-.558-2.046-2.77-3.228-4.66-3.996"/><path d="M299.723 89.833c2.358 1.99 4.352 5.834 5.84 8.554a105.3 105.3 0 0 1 12.72 41.976c1.813 23.177-5.271 40.393-12.05 62-1.175 3.751-1.986 8.859-2.994 12.745-2.31 8.895-3.096 16.55-2.365 25.754.277 3.485 1.112 4.976 1.79 8.028-10.983-15.731 4.822-55.82 9.846-73.233 9.13-31.648 3.65-57.6-12.787-85.824"/><path d="M418.932 331.727c2.96 2.73 3.46 8.748.43 11.491-4.135 3.74-9.71 6.334-13.936 10.088-4.931 4.541-9.61 9.002-14.929 13.128-1.842 1.429-3.582 3.514-5.569 4.829-3.26 1.977-8.644 4.43-12.104 1.664-.478-.38-1.11-.477-1.404-1.013 2.445.731 5.128 1.243 7.6.33 2.108-.78 32.925-25.414 36.877-28.882 1.232-1.082 3.165-2.589 3.748-4.16.899-2.418.25-5.207-.713-7.475"/></svg>