<svg xmlns="http://www.w3.org/2000/svg" width="250" height="250" fill="none" viewBox="0 0 250 250">
<!-- SVG created with Arrow, by QuiverAI (https://quiver.ai) -->
  <path d="m127.4 9.28c-1-2.16-5.3-2.54-6.47 0.22-1.84 0.78-2.22 4.28-2.22 5.45l-17.96 73.26c-2.55 10.6-5.26 21.57-6.81 31.37-0.44 2.76-0.59 5.18 0.96 7.72l13 26.56-1.1 2.86c-7.83 3.01-13.87 3.01-20.77 2.71-6.96-0.3-13-3.21-14.18-11.93-1.84-14.09 5.4-30.89 9.85-47.24 7.23-26.34-2.19-49.84-18.7-71.45-2.09-2.04-3.34-3.59-4.73-2.98h-3.55c-2.71 1.25-4.26 3.96-3.41 7.12 5.19 18.26 2.97 30.31-3.6 50.85-3.55 10.97-8.96 21.33-13.4 31.93v1.18l-0.91 1.17c-6.65 14.39-10.79 29.53-12.26 46.56-0.45 4.6-0.89 7.68 2.51 10.3l32.81 25.58c1.55 1.17 2.8 1.61 4.56 1.54 15.14-0.75 28.14-2.75 45.13-7.65 1.03 5.97-6.13 11.64-9.6 15.93-3.43 4.29-3.62 7.72-0.46 10.02l24.54 19.95c2.47 1.76 5.14 1.61 7.2-0.54l25.77-20.26c3.16-2.16 3.16-6.45-0.15-9.39-5.19-4.44-10.83-9.49-12.01-15.08l1.26-0.78c11.51 4.9 27.48 7.16 44.92 7.65 2.39 0.15 3.64-0.6 5.11-1.85l32.27-25.9c2.22-1.69 2.45-3.45 2.3-6.46-1.18-20.69-6.37-37.26-19.07-62.24-11.36-23.5-16.7-41.61-10.91-73.4 1.1-3.68-0.45-5.52-2.57-6.38h-3.55c-1.47 0-2.8 2.55-5.02 4.84-12.55 13.65-18.59 27.45-19.76 46.45l0.3 0.56-0.3 4.58 0.7 9.31 10.04 33.72 2.3 12.35 0.3 6.42c-0.96 9.16-3.81 13.3-12.09 15.82h-10.05l-10.04-1.91-7.24-3.61 13.37-27.47c1.39-2.68 1.32-5.11 0.39-8.43l-25.77-106.9c-0.3-0.7-0.57-1.48-0.93-2.15zm-3.23 27.07 12.77 48.95 0.37 2.61 7.54 34.02-2.15 5.03-11.99 24.99c-1.84 4.37-3.31 7.48 1.29 9.9 10.2 5.3 20.16 7.59 30.44 7.44 15.37-0.78 23.51-7.82 26.3-21.79 2.15-12.05-4.74-33.29-10.93-52.43-4.3-12.96-1.71-30.46 6.99-45.9 0.65 6.04 0.8 12.31 0.88 17.06 2.72 12.88 6.27 23.41 13.5 38.1v0.87l0.86 1.47 0.37 1.17 0.7 0.87 0.3 1.17 0.72 0.87 0.3 1.47 0.73 1.17 0.3 1.17 0.8 1.17 0.3 1.39 0.72 1.17 0.3 1.17 0.65 1.47 0.37 1.17 0.45 1.17 0.57 1.47 0.38 1.17 0.57 1.47 0.9 2.34 0.37 1.47 0.52 1.47 0.9 2.34 0.37 1.47 0.45 1.47 0.45 1.17 0.3 1.47 0.3 1.17 0.37 1.47 0.3 1.47 0.45 1.17 1.8 8.82 0.15 1.47 0.3 1.47 0.15 10.44-1.47 2.06-1.47 0.63-0.88 1.47-1.47 0.63-0.95 1.47-1.47 0.62-0.94 1.47-1.47 0.63-0.95 1.47-1.47 0.63-0.95 1.47-1.47 0.63-0.95 1.47-1.47 0.63-0.95 1.47-1.47 0.63-0.95 1.47-1.47 0.63-0.95 1.47-1.47 0.63-2.79 2.52h-12.21l-1.47-0.63h-2.79l-1.47-0.63h-2.79l-1.47-0.63h-1.47l-1.47-0.63h-2.79l-1.47-0.63h-2.79l-1.47-0.63h-1.46l-1.47-0.95-2.4-0.37-1.47-1.1-2.39-0.44-1.47-0.87-2.4-0.7-3.4-0.63c-4.15 0.3-6.5 3.7-6.95 7.8l-0.3 6.04c-0.44 6.57 4.01 10.56 10.85 16.75l-2.57 5.3h-1.47l-1.17 1.47h-1.18l-1.17 1.47h-1.18l-1.17 1.47h-1.18l-2.47 2.73-4.07 3.43h-1.47l-2.47-2.07-1.47-1.47-1.47-0.94-1.47-1.47-1.47-0.87-1.47-1.47-1.47-0.87-1.47-1.47-1.47-0.87-3.55-3.57 7.54-9.61c3.85-4.47 3.7-13.64 1.57-18.54-1.3-2.31-3.13-3.48-6.29-3.02l-2.4 0.87-1.83 0.3-1.84 1.17-2.39 0.37-1.84 1.47-2.39 0.37-1.84 0.87-2.39 0.37-1.84 0.87h-2.79l-1.84 0.63h-2.79l-1.84 0.87h-2.79l-1.47 0.63h-14.86l-1.84-1.83-1.47-0.63-0.95-1.47-1.47-0.63-0.95-1.17-1.47-0.94-0.94-1.17-1.47-0.95-1.18-1.17-1.47-1.25-1.47-1.02-1.17-1.17-8.82-7.02-2.47-2.13-2.79-2.73c0.45-17.96 7.84-38.13 15.67-54.1 10.43-21.61 16.15-36.68 16.15-63.93 8.46 9.89 9.71 23.24 8.76 38.97l-10.95 38.75-1.54 9.31v10.96l0.87 4.29c3.85 12.5 11.69 17.61 26.08 17.99 9.59 0 19.54-3.55 29.59-7.99 3.46-2.17 3.84-4.58 1.71-8.8l-13.94-30.09 19.83-86.06h0.37z" fill="#020203"/>
</svg>