<?xml version="1.0" encoding="utf-8" ?><svg xmlns="http://www.w3.org/2000/svg" xmlns:xlink="http://www.w3.org/1999/xlink" width="751" height="471" viewBox="0 0 751 471"><path fill="#FEFEFE" transform="matrix(0.902644 0 0 0.902299 -6.10352e-05 0)" d="M390.142 276.842C388.704 273.93 388.247 270.783 386.936 268.383C380.695 256.966 373.152 245.15 368.327 233.1C366.526 228.599 370.633 216.615 371.804 211.698L380.55 175.282L397.461 103.202C400.93 88.3003 404.718 73.3005 408.324 58.4091C409.591 53.174 412.44 49.2187 418.219 49.1045C420.313 49.9556 422.764 51.2662 423.382 53.5328C425.198 60.1914 426.669 68.0369 428.209 74.74L439.931 124.032L456.772 194.333C459.267 204.735 462.093 215.314 464.327 225.768C465.162 229.672 464.937 230.912 463.234 234.521C460.542 240.226 457.53 245.914 454.641 251.541C450.339 259.925 446.09 268.336 441.893 276.773C444.898 278.054 447.227 278.934 450.324 279.976C457.553 282.431 465.814 284.906 473.412 285.691C476.126 285.971 479.366 286.151 482.039 285.541C483.365 285.238 484.46 284.202 485.694 283.647C489.071 282.13 492.45 281.868 495.461 279.359C512.82 264.902 490.355 210.982 485.692 193.312C482.672 181.868 480.174 170.023 481.239 158.135C483.645 131.278 495.486 99.7055 516.789 82.0469C519.969 79.4108 522.045 77.8476 526.265 78.2302C528.208 79.6642 530.638 81.1564 530.774 83.8508C531.055 89.5541 528.871 95.2927 527.834 100.966C516.636 162.239 562.336 211.071 572.432 268.555C574.424 279.895 577.214 294.96 575.495 306.359C571.827 311.764 529.742 343.746 523.083 349.515C522.221 350.262 519.318 351.967 517.961 352.106C509.973 352.922 498.842 351.739 490.885 350.844C487.74 351.094 481.757 351.03 479.257 351.432C474.665 351.785 461.655 346.091 456.977 349.817C454.649 353.434 458.287 359.875 460.172 363.154C460.687 363.751 463.749 367.368 464.117 367.646C465.184 370.16 465.902 373.251 464.907 375.93C464.261 377.672 462.119 379.342 460.754 380.541C456.376 384.385 422.235 411.687 419.899 412.551C417.161 413.563 414.189 412.995 411.48 412.185C403.388 407.007 394.585 398.728 386.742 392.949C381.503 389.089 374.973 383.578 370.099 379.528C361.661 372.516 379.702 359.011 382.485 352.815C382.856 351.999 383.215 351.179 383.563 350.354C383.738 348.897 383.838 348.683 383.443 347.315C380.283 345.36 360.408 350.438 355.781 351.261C341.401 353.82 327.859 354.65 313.322 353.821C308.842 350.294 307.88 351.232 303.857 345.868C291.749 335.606 279.127 325.87 266.888 315.761C263.653 313.089 259.645 310.169 256.932 307.036C255.685 299.984 256.469 289.335 257.32 282.202C260.373 256.591 270.699 231.022 281.206 207.572C290.13 187.655 298.587 170.337 302.946 148.616C306.123 132.785 309.074 121.556 305.362 105.344C304.201 98.7124 302.19 91.891 302.104 85.1696C302.047 80.7215 306.116 77.2258 310.109 77.8717C318.537 79.2351 326.828 93.4067 332.05 99.5601C350.259 130.84 356.332 159.602 346.216 194.677C340.65 213.975 323.141 258.405 335.308 275.84C340.409 282.226 351.106 285.944 359.107 285.78C366.064 285.637 376.359 280.499 383.157 280.562C385.574 278.441 387.225 277.992 390.142 276.842ZM327.955 127.91L326.562 127.081C323.16 128.873 323.512 139.22 322.413 143.031L321.206 142.471C320.859 143.192 320.468 144.155 320.032 144.774C319.068 147.794 318.571 152.072 317.861 155.312C307.4 203.004 271.338 248.806 273.247 299.222C274.515 300.315 275.984 301.645 277.311 302.621C285.213 308.756 293.02 315.013 300.729 321.388C306.512 326.178 313.586 332.337 319.473 336.725C324.437 336.978 329.256 337.188 334.203 336.652C337.17 336.33 340.945 334.822 343.726 334.679C359.454 333.876 374.024 328.542 388.814 323.625C392.658 322.347 394.352 322.017 398.375 322.45C398.724 322.706 400.489 324.042 400.746 324.143C404.768 331.198 405.357 341.666 403.44 349.55C402.093 355.09 397.639 359.689 393.941 363.961L393.847 366.764C391.456 377.05 394.689 374.856 399.687 381.383C400.998 383.286 413.589 392.942 416.355 395.012C420.214 392.473 421.423 392.017 425.308 388.925C431.778 383.774 438.737 377.03 445.285 372.19C435.194 358.924 423.605 352.857 428.709 333.82C430.366 327.643 430.477 326.739 435.428 322.424C442.825 321.655 445.301 323.054 452.106 325.584C457.853 327.25 463.831 330.038 469.62 331.434C473.785 332.438 479.8 331.956 484.329 333.71C486.161 334.42 490.574 334.229 492.648 334.871C500.166 337.2 506.822 337.073 514.56 336.834C524.581 328.693 534.578 319.832 544.509 311.559C551.078 306.086 552.82 307.014 559.157 299.341C558.812 288.024 558.444 280.948 556.01 269.649C548.061 232.748 527.512 201.361 516.872 165.363C513.655 154.479 512.122 144.247 510.63 133.063C510.111 131.011 510.42 130.952 509.144 129.601C504.006 129.563 502.745 144.073 501.032 146.898L499.971 147.002C499.636 147.694 499.273 148.581 498.783 149.144C498.692 149.636 498.511 150.432 498.501 150.901C497.12 160.627 497.402 170.518 499.336 180.15C505.419 210.691 535.07 267.75 503.468 292.924C502.355 293.81 497.338 297.039 497.263 297.12C474.306 305.765 452.361 299.939 430.858 289.699C428.51 288.581 426.465 287.557 424.417 285.922C421.322 273.714 436.965 253.784 441.698 242.291C442.89 239.396 448.359 231.176 447.88 228.01C446.319 217.713 443.107 207.122 440.604 196.947L428.595 147.345C425.393 134.105 422.978 120.677 419.27 107.454C418.474 103.136 417.709 98.9765 416.016 94.8943C413.754 102.377 411.917 111.929 410.16 119.717C408.395 127.533 406.049 136.192 404.507 143.946C399.108 164.228 394.921 185.927 389.538 206.278C387.801 213.322 386.198 221.105 384.371 227.969C389.784 238.571 395.118 249.214 400.374 259.894C403.2 265.504 406.26 271.069 408.658 276.863C411.173 282.937 408.094 286.663 402.769 289.228C383.408 298.555 360.551 305.296 339.253 298.826C335.114 297.559 330.576 294.543 327.092 292.111C324.579 288.185 320.277 285.715 318.463 280.368C307.227 247.247 325.407 212.43 333.422 180.63C337.524 164.356 334.69 143.483 327.955 127.91Z"/><path transform="matrix(0.902644 0 0 0.902299 -6.10352e-05 0)" d="M303.857 345.868C305.66 347.271 310.662 351.375 312.63 351.777C321.042 353.493 337.382 351.384 345.852 350.321C360.049 348.423 374.018 345.097 387.547 340.394C390.406 342.733 385.321 348.323 383.563 350.354C383.738 348.897 383.838 348.683 383.443 347.315C380.283 345.36 360.408 350.438 355.781 351.261C341.401 353.82 327.859 354.65 313.322 353.821C308.842 350.294 307.88 351.232 303.857 345.868Z"/><path transform="matrix(0.902644 0 0 0.902299 -6.10352e-05 0)" d="M460.172 363.154C458.832 362.001 455.881 358.986 454.857 357.642C452.027 353.925 442.095 345.152 444.047 340.411C444.97 340.23 451.034 342.559 452.452 342.996C465.084 346.888 477.814 349.171 490.885 350.844C487.74 351.094 481.757 351.03 479.257 351.432C474.665 351.785 461.655 346.091 456.977 349.817C454.649 353.434 458.287 359.875 460.172 363.154Z"/><path transform="matrix(0.902644 0 0 0.902299 -6.10352e-05 0)" d="M320.032 144.774C320.468 144.155 320.859 143.192 321.206 142.471L322.413 143.031C318.029 164.86 315.284 176.517 305.956 197.03C293.343 224.762 279.562 254.67 276.06 285.086C275.325 292.291 273.657 295.784 277.311 302.621C275.984 301.645 274.515 300.315 273.247 299.222C271.338 248.806 307.4 203.004 317.861 155.312C318.571 152.072 319.068 147.794 320.032 144.774Z"/><path transform="matrix(0.902644 0 0 0.902299 -6.10352e-05 0)" d="M389.538 206.278C389.695 208.777 389.226 210.374 390.165 212.443L390.127 212.911C389.825 216.303 386.761 227.56 387.519 229.716C392.127 242.819 399.391 255.874 405.525 268.44C409.169 275.905 416.269 281.813 407.057 290.243C401.004 291.065 393.493 296.59 387.51 298.671C382.989 300.242 377.827 301.875 373.03 302.701C366.801 303.197 349.567 303.596 343.95 302.415C339.998 301.555 336.249 299.938 332.911 297.655C331.322 296.551 328.095 293.743 327.092 292.111C330.576 294.543 335.114 297.559 339.253 298.826C360.551 305.296 383.408 298.555 402.769 289.228C408.094 286.663 411.173 282.937 408.658 276.863C406.26 271.069 403.2 265.504 400.374 259.894C395.118 249.214 389.784 238.571 384.371 227.969C386.198 221.105 387.801 213.322 389.538 206.278Z"/><path transform="matrix(0.902644 0 0 0.902299 -6.10352e-05 0)" d="M498.501 150.901L499.264 153.076L499.914 151.478C499.937 152.791 499.958 155.236 500.122 156.477C499.729 163.859 499.436 173.708 500.975 181.031C507.624 212.671 536.281 267.513 506.376 294.225C502.683 297.523 498.224 299.842 493.461 301.199L494.076 299.584C495.575 298.782 496.249 298.538 497.263 297.12C497.338 297.039 502.355 293.81 503.468 292.924C535.07 267.75 505.419 210.691 499.336 180.15C497.402 170.518 497.12 160.627 498.501 150.901Z"/><path transform="matrix(0.902644 0 0 0.902299 -6.10352e-05 0)" d="M404.507 143.946L405.713 142.474L406.926 143.111C404.686 151.639 402.874 159.722 401.137 168.363C399.645 175.793 397.112 183.335 395.429 190.749C393.778 197.979 392.198 205.308 390.165 212.443C389.226 210.374 389.695 208.777 389.538 206.278C394.921 185.927 399.108 164.228 404.507 143.946Z"/><path transform="matrix(0.902644 0 0 0.902299 -6.10352e-05 0)" d="M424.417 285.922C426.465 287.557 428.51 288.581 430.858 289.699C452.361 299.939 474.306 305.765 497.263 297.12C496.249 298.538 495.575 298.782 494.076 299.584L493.461 301.199C489.983 303.206 483.765 303.098 479.777 303.011C470.199 302.8 460.743 303.889 451.711 300.059C448.658 298.764 445.544 297.425 442.498 296.095C436.832 294.075 426.788 292.459 424.417 285.922Z"/><path transform="matrix(0.902644 0 0 0.902299 -6.10352e-05 0)" d="M416.016 94.8943C417.709 98.9765 418.474 103.136 419.27 107.454C418.551 106.352 418.566 105.905 417.556 105.679C414.05 109.248 408.724 136.72 406.926 143.111L405.713 142.474L404.507 143.946C406.049 136.192 408.395 127.533 410.16 119.717C411.917 111.929 413.754 102.377 416.016 94.8943Z"/><path transform="matrix(0.902644 0 0 0.902299 -6.10352e-05 0)" d="M498.783 149.144C499.8 137.928 504.802 125.865 509.856 115.928C510.289 121.333 510.292 127.488 510.63 133.063C510.111 131.011 510.42 130.952 509.144 129.601C504.006 129.563 502.745 144.073 501.032 146.898L499.971 147.002C499.636 147.694 499.273 148.581 498.783 149.144Z"/><path transform="matrix(0.902644 0 0 0.902299 -6.10352e-05 0)" d="M400.746 324.143C408.943 329.159 407.259 350.664 402.832 357.902C400.519 361.683 396.349 363.46 393.847 366.764L393.941 363.961C397.639 359.689 402.093 355.09 403.44 349.55C405.357 341.666 404.768 331.198 400.746 324.143Z"/><path transform="matrix(0.902644 0 0 0.902299 -6.10352e-05 0)" d="M322.232 115.541C324.313 119.725 326.259 123.536 327.955 127.91L326.562 127.081C323.16 128.873 323.512 139.22 322.413 143.031L321.206 142.471C320.859 143.192 320.468 144.155 320.032 144.774C321.587 133.148 322.021 127.097 322.232 115.541Z"/><path transform="matrix(0.902644 0 0 0.902299 -6.10352e-05 0)" d="M393.941 363.961L393.847 366.764C391.456 377.05 394.689 374.856 399.687 381.383C396.2 379.193 390.3 374.538 387.173 371.901C389.33 369.224 391.685 366.568 393.941 363.961Z"/><path transform="matrix(0.902644 0 0 0.902299 -6.10352e-05 0)" d="M498.783 149.144C499.273 148.581 499.636 147.694 499.971 147.002L501.032 146.898C500.557 149.825 500.579 154.451 500.122 156.477C499.958 155.236 499.937 152.791 499.914 151.478L499.264 153.076L498.501 150.901C498.511 150.432 498.692 149.636 498.783 149.144Z"/><path transform="matrix(0.902644 0 0 0.902299 -6.10352e-05 0)" d="M526.265 78.2302C537.949 79.9313 528.468 105.905 528.136 114.071C526.44 155.73 546.649 192.254 562.103 229.563C570.455 249.726 576.019 268.92 577.026 290.906C577.398 299.043 581.154 307.204 573.186 313.018C567.292 317.965 560.8 322.134 554.895 326.905L534.544 343.404C529.387 347.658 526.524 350.571 520.662 353.957C508.219 354.06 496.35 354.574 484.222 351.884C482.838 351.577 480.712 351.527 479.257 351.432C481.757 351.03 487.74 351.094 490.885 350.844C498.842 351.739 509.973 352.922 517.961 352.106C519.318 351.967 522.221 350.262 523.083 349.515C529.742 343.746 571.827 311.764 575.495 306.359C577.214 294.96 574.424 279.895 572.432 268.555C562.336 211.071 516.636 162.239 527.834 100.966C528.871 95.2927 531.055 89.5541 530.774 83.8508C530.638 81.1564 528.208 79.6642 526.265 78.2302Z"/><path transform="matrix(0.902644 0 0 0.902299 -6.10352e-05 0)" d="M418.219 49.1045C422.703 49.4102 425.376 53.3107 426.476 57.4419C428.205 63.9435 428.971 70.6691 430.53 77.2638L447.473 151.906C448.309 155.587 450.889 161.366 451.437 164.994C454.432 184.833 464.522 213.387 466.375 231.915C467.198 240.149 447.296 263.88 447.105 273.93C446.728 275.913 448.996 278.629 450.324 279.976C447.227 278.934 444.898 278.054 441.893 276.773C446.09 268.336 450.339 259.925 454.641 251.541C457.53 245.914 460.542 240.226 463.234 234.521C464.937 230.912 465.162 229.672 464.327 225.768C462.093 215.314 459.267 204.735 456.772 194.333L439.931 124.032L428.209 74.74C426.669 68.0369 425.198 60.1914 423.382 53.5328C422.764 51.2662 420.313 49.9556 418.219 49.1045Z"/><path transform="matrix(0.902644 0 0 0.902299 -6.10352e-05 0)" d="M332.05 99.5601C334.662 101.765 336.872 106.026 338.52 109.04C346.429 123.387 351.23 139.238 352.612 155.562C354.621 181.248 346.772 200.328 339.263 224.275C337.96 228.432 337.062 234.093 335.945 238.4C333.387 248.258 332.515 256.741 333.325 266.943C333.632 270.805 334.557 272.457 335.308 275.84C323.141 258.405 340.65 213.975 346.216 194.677C356.332 159.602 350.259 130.84 332.05 99.5601Z"/><path transform="matrix(0.902644 0 0 0.902299 -6.10352e-05 0)" d="M464.117 367.646C467.396 370.672 467.95 377.342 464.592 380.382C460.012 384.527 453.836 387.401 449.154 391.562C443.691 396.595 438.507 401.539 432.615 406.111C430.574 407.695 428.646 410.006 426.445 411.463C422.834 413.654 416.869 416.373 413.035 413.308C412.506 412.886 411.806 412.779 411.48 412.185C414.189 412.995 417.161 413.563 419.899 412.551C422.235 411.687 456.376 384.385 460.754 380.541C462.119 379.342 464.261 377.672 464.907 375.93C465.902 373.251 465.184 370.16 464.117 367.646Z"/></svg>